<svg width="929" height="767" viewBox="0 0 929 767" fill="none" xmlns="http://www.w3.org/2000/svg">
<mask id="mask0" mask-type="alpha" maskUnits="userSpaceOnUse" x="0" y="0" width="929" height="767">
<path d="M0 0L929 0V767H0L0 0Z" fill="white"/>
</mask>
<g mask="url(#mask0)">
<path fill-rule="evenodd" clip-rule="evenodd" d="M-0.00231934 394.781L431.325 609.064V766.981L-0.00231934 552.698L-0.00231934 394.781ZM497.676 -0.0256348L929.003 214.258V372.185L497.676 157.901V-0.0256348ZM497.676 213.823L929.003 428.117V586.033L497.676 371.75V213.823ZM818.541 740.084L497.676 582.32V424.393L929.003 638.676V690.971C929.003 722.841 896.584 748.684 856.575 748.684C843.152 748.684 829.975 745.698 818.541 740.084ZM107.012 18.586L431.325 178.066V335.982L-0.00231934 121.699L-0.00231934 66.1682C-0.00231934 35.2973 31.422 10.2683 70.164 10.2683C83.178 10.2683 95.933 13.1458 107.012 18.586ZM-0.00231934 180.933L431.325 395.216V553.132L-0.00231934 338.849L-0.00231934 180.933Z" fill="#00E4BF"/>
</g>
</svg>
