<svg width="300" height="150" viewBox="0 0 300 150" fill="none" xmlns="http://www.w3.org/2000/svg">
<mask id="mask0" mask-type="alpha" maskUnits="userSpaceOnUse" x="0" y="0" width="100" height="150">
<path d="M0 0L99.7538 0V150H0L0 0Z" fill="white"/>
</mask>
<g mask="url(#mask0)">
<path fill-rule="evenodd" clip-rule="evenodd" d="M-0.000610352 77.2061L46.3143 119.113V149.996L-0.000610352 108.089L-0.000610352 77.2061ZM53.4389 -0.00524902L99.7538 41.9015V72.7869L53.4389 30.8801V-0.00524902ZM53.4389 41.8166L99.7538 83.7254V114.609L53.4389 72.7019V41.8166ZM87.8927 144.736L53.4389 113.882V82.9971L99.7538 124.904V135.131C99.7538 141.364 96.2727 146.418 91.9766 146.418C90.5353 146.418 89.1203 145.834 87.8927 144.736ZM11.4903 3.63457L46.3143 34.8236V65.7069L-0.000610352 23.8001L-0.000610352 12.9401C-0.000610352 6.90276 3.37365 2.00791 7.53368 2.00791C8.93109 2.00791 10.3007 2.57066 11.4903 3.63457ZM-0.000610352 35.3842L46.3143 77.291V108.174L-0.000610352 66.2675L-0.000610352 35.3842Z" fill="#00E4BF"/>
</g>
<path fill-rule="evenodd" clip-rule="evenodd" d="M140.054 42.0861H146.619L164.712 87.7303L170.132 102.797H170.437C170.132 95.4856 169.674 87.2865 169.674 79.6437V42.0861H175.704V114.761H169.14L150.972 69.0067L145.552 54.0503H145.246C145.628 61.3618 146.086 69.1171 146.086 76.762V114.761H140.054V42.0861Z" fill="#6B6666"/>
<path fill-rule="evenodd" clip-rule="evenodd" d="M184.184 136.807L185.406 129.606C186.168 129.939 187.314 130.383 188.231 130.383C192.429 130.383 195.1 125.508 196.627 118.861L197.467 114.873L182.58 60.9188H189.069L196.627 90.7212C197.771 95.3739 199.069 100.914 200.215 105.898H200.519C201.589 101.023 202.657 95.4844 203.651 90.7212L210.291 60.9188H216.399L202.429 119.194C199.833 129.829 196.017 137.914 188.535 137.914C186.856 137.914 185.406 137.472 184.184 136.807Z" fill="#6B6666"/>
<path fill-rule="evenodd" clip-rule="evenodd" d="M222.816 103.904V42.0868H229.074V104.569C229.074 107.449 229.915 108.557 230.831 108.557C231.212 108.557 231.518 108.557 232.205 108.336L233.044 115.204C232.205 115.76 231.137 116.091 229.457 116.091C224.724 116.091 222.816 111.77 222.816 103.904Z" fill="#6B6666"/>
<path fill-rule="evenodd" clip-rule="evenodd" d="M261.062 101.578V86.622C248.696 88.8369 244.42 93.2688 244.42 100.139C244.42 106.231 247.32 108.779 250.986 108.779C254.574 108.779 257.475 106.231 261.062 101.578ZM238.314 100.803C238.314 89.0578 245.26 83.1882 261.062 80.6399C261.062 73.7701 259.535 67.1233 253.428 67.1233C249.154 67.1233 245.26 70.0029 242.36 72.8846L239.918 66.569C243.352 63.3561 248.542 59.5909 254.497 59.5909C263.581 59.5909 267.397 68.3422 267.397 81.7484V114.762H262.207L261.673 108.336H261.445C257.932 112.547 253.81 116.091 249.154 116.091C242.97 116.091 238.314 110.44 238.314 100.803Z" fill="#6B6666"/>
<path fill-rule="evenodd" clip-rule="evenodd" d="M272.595 108.669L275.725 102.574C278.931 106.341 282.213 109 286.642 109C291.526 109 293.968 105.233 293.968 100.58C293.968 95.0419 289.542 92.604 285.495 90.3891C280.229 87.6178 274.655 83.9632 274.655 74.8785C274.655 66.2376 279.39 59.5908 287.48 59.5908C292.062 59.5908 296.106 62.36 299.008 65.6834L295.954 71.4446C293.434 68.6755 290.762 66.6815 287.48 66.6815C282.824 66.6815 280.687 70.3361 280.687 74.4347C280.687 79.5312 284.504 81.4149 288.702 83.7423C294.046 86.6219 300 89.8349 300 100.028C300 108.779 295.19 116.091 286.411 116.091C281.145 116.091 276.105 112.878 272.595 108.669Z" fill="#6B6666"/>
</svg>
